<svg xmlns="http://www.w3.org/2000/svg" width="240" height="240" viewBox="0 0 240 240">
    <defs>
        <style>
            .cls-2{fill:#fff}
        </style>
    </defs>
    <g id="Group_10806" transform="translate(-140 -443)">
        <path id="Rectangle_2919" fill="#4a90e2" d="M50 0h140a50 50 0 0 1 50 50v140a50 50 0 0 1-50 50H50a50 50 0 0 1-50-50V50A50 50 0 0 1 50 0z" transform="translate(140 443)"/>
        <g id="Group_10802" transform="translate(195.18 493.099)">
            <path id="Path_12965" d="M1320.721 549.681h-40.079a30.059 30.059 0 0 0-30.059 30.059v20.04a30.059 30.059 0 0 0 30.059 30.059h4.831c.106.118.206.239.32.354l8.95 8.95a8.7 8.7 0 0 0 12.3 0l8.951-8.95c.113-.114.214-.235.32-.354h4.4a30.059 30.059 0 0 0 30.059-30.059v-20.04a30.059 30.059 0 0 0-30.052-30.059zm16.031 48.1a18.036 18.036 0 0 1-18.035 18.036h-36.072a18.036 18.036 0 0 1-18.036-18.036v-16.037a18.036 18.036 0 0 1 18.036-18.035h36.072a18.035 18.035 0 0 1 18.035 18.035z" class="cls-2" transform="translate(-1250.582 -549.681)"/>
            <path id="Path_12966" d="M1642.189 616.042c0-3.631.158-6.986-5.084-6.576s-20.984 8.753-20.966 14.8V640.7c-.1 6.259 15.725 14.382 20.968 14.793s5.083-2.944 5.083-6.575z" class="cls-2" transform="translate(-1511.933 -592.4)"/>
            <path id="Path_12967" d="M1403.234 708.792c-2.57 2.747-5.2 4.121-7.849 4.056-4.319-.091-7.637-3.869-7.706-3.949a3.006 3.006 0 1 0-4.59 3.883c.2.241 5.041 5.89 12.1 6.075.121.005.242.005.364.005 4.307 0 8.37-2.005 12.069-5.962a3.006 3.006 0 0 0-4.39-4.108z" class="cls-2" transform="translate(-1344.808 -662.752)"/>
            <circle id="Ellipse_2427" cx="5.01" cy="5.01" r="5.01" class="cls-2" transform="translate(30.059 26.051)"/>
            <circle id="Ellipse_2428" cx="5.01" cy="5.01" r="5.01" class="cls-2" transform="translate(60.119 26.051)"/>
        </g>
        <text id="CAMCALL" fill="#fff" font-family="Montserrat-Bold, Montserrat" font-size="27px" font-weight="700" transform="translate(260 630.044)">
            <tspan x="-69.296" y="0">CAMCALL</tspan>
        </text>
    </g>
</svg>
